<svg width="37" height="37" viewBox="0 0 37 37" fill="none" xmlns="http://www.w3.org/2000/svg">
<path d="M37 18.4693C37 22.4934 35.8543 26.1127 33.563 29.3272C31.2716 32.5417 28.3116 34.7662 24.683 36.0007C24.2607 36.0808 23.9518 36.0247 23.7563 35.8323C23.5608 35.6399 23.463 35.3995 23.463 35.1109V30.0366C23.463 28.4815 23.0564 27.3432 22.2431 26.6217C23.1346 26.5255 23.9362 26.3813 24.6478 26.1889C25.3595 25.9965 26.0946 25.6838 26.8532 25.251C27.6117 24.8181 28.2452 24.285 28.7535 23.6517C29.2618 23.0185 29.6763 22.1768 29.9969 21.1266C30.3176 20.0765 30.4779 18.8701 30.4779 17.5073C30.4779 15.5674 29.8601 13.9161 28.6245 12.5533C29.2032 11.0944 29.1406 9.45909 28.4368 7.64744C27.9988 7.50315 27.3654 7.59132 26.5364 7.91197C25.7075 8.23262 24.988 8.58533 24.378 8.97011L23.4865 9.54727C22.0319 9.13043 20.5304 8.92201 18.982 8.92201C17.4336 8.92201 15.9321 9.13043 14.4775 9.54727C14.2273 9.37092 13.8949 9.15448 13.4804 8.89796C13.0659 8.64144 12.4129 8.33282 11.5214 7.97209C10.6299 7.61136 9.95736 7.50315 9.50378 7.64744C8.81559 9.45909 8.76085 11.0944 9.33955 12.5533C8.10394 13.9161 7.48614 15.5674 7.48614 17.5073C7.48614 18.8701 7.64645 20.0725 7.96709 21.1146C8.28772 22.1567 8.69829 22.9984 9.19879 23.6397C9.69929 24.281 10.3288 24.8181 11.0874 25.251C11.846 25.6838 12.5811 25.9965 13.2927 26.1889C14.0044 26.3813 14.806 26.5255 15.6975 26.6217C15.0718 27.1989 14.6887 28.0246 14.5479 29.0987C14.2194 29.2591 13.8675 29.3793 13.4921 29.4595C13.1168 29.5396 12.671 29.5797 12.1549 29.5797C11.6387 29.5797 11.1265 29.4074 10.6182 29.0627C10.1099 28.718 9.67583 28.217 9.31609 27.5596C9.01892 27.0466 8.63963 26.6298 8.17823 26.3091C7.71684 25.9885 7.32973 25.7961 7.01692 25.7319L6.5477 25.6598C6.21924 25.6598 5.99246 25.6959 5.86733 25.768C5.7422 25.8402 5.7031 25.9323 5.75002 26.0446C5.79695 26.1568 5.86733 26.269 5.96117 26.3813C6.05502 26.4935 6.15668 26.5897 6.26617 26.6698L6.43039 26.7901C6.77449 26.9504 7.11467 27.255 7.45094 27.7039C7.78722 28.1528 8.03356 28.5617 8.18996 28.9304L8.42457 29.4835C8.6279 30.0927 8.972 30.5857 9.45686 30.9625C9.94172 31.3393 10.4657 31.5797 11.0287 31.684C11.5918 31.7882 12.1353 31.8443 12.6593 31.8523C13.1832 31.8603 13.6173 31.8323 13.9614 31.7681L14.501 31.6719C14.501 32.2812 14.5049 32.9946 14.5127 33.8123C14.5205 34.6299 14.5244 35.0628 14.5244 35.1109C14.5244 35.3995 14.4228 35.6399 14.2194 35.8323C14.0161 36.0247 13.7033 36.0808 13.281 36.0007C9.65236 34.7662 6.69237 32.5417 4.40102 29.3272C2.10967 26.1127 0.963989 22.4934 0.963989 18.4693C0.963989 15.1185 1.76948 12.0283 3.38047 9.19857C4.99145 6.36886 7.17723 4.12833 9.93781 2.477C12.6984 0.825667 15.7131 0 18.982 0C22.2509 0 25.2656 0.825667 28.0262 2.477C30.7868 4.12833 32.9726 6.36886 34.5835 9.19857C36.1945 12.0283 37 15.1185 37 18.4693Z" fill="#928BCF"/>
</svg>
