<svg width="37" height="37" viewBox="0 0 37 37" fill="none" xmlns="http://www.w3.org/2000/svg">
<path d="M18.5 0C14.9364 0 11.4528 1.05674 8.48974 3.03658C5.5267 5.01643 3.21728 7.83046 1.85354 11.1228C0.489802 14.4152 0.132985 18.038 0.828214 21.5332C1.52344 25.0283 3.23949 28.2388 5.75936 30.7587C8.27922 33.2785 11.4897 34.9946 14.9849 35.6898C18.48 36.385 22.1028 36.0282 25.3952 34.6645C28.6876 33.3007 31.5016 30.9913 33.4814 28.0283C35.4613 25.0652 36.518 21.5816 36.518 18.018C36.518 13.2393 34.6197 8.65639 31.2407 5.27735C27.8616 1.89832 23.2787 0 18.5 0ZM13.2606 27.5012H9.3298V14.8388H13.2606V27.5012ZM11.2928 13.1105C10.8404 13.1123 10.3977 12.9801 10.0204 12.7303C9.64323 12.4806 9.34852 12.1247 9.17356 11.7075C8.99861 11.2903 8.95126 10.8306 9.03751 10.3865C9.12375 9.94243 9.33972 9.53388 9.65811 9.21251C9.9765 8.89114 10.383 8.67137 10.8263 8.58099C11.2695 8.49061 11.7296 8.53367 12.1484 8.70473C12.5672 8.87579 12.9259 9.16717 13.1792 9.54204C13.4324 9.9169 13.5688 10.3584 13.5711 10.8108C13.5724 11.4174 13.3335 11.9999 12.9065 12.4308C12.4796 12.8617 11.8994 13.1061 11.2928 13.1105ZM27.9832 27.5012H24.0548V21.3371C24.0548 19.8672 24.0263 17.9825 22.0112 17.9825C19.996 17.9825 19.6404 19.5804 19.6404 21.2304V27.5012H15.7262V14.8388H19.4981V16.5647H19.5526C20.0766 15.569 21.3592 14.5187 23.2724 14.5187C27.2506 14.5187 27.9832 17.1408 27.9832 20.5453V27.5012Z" fill="#928BCF"/>
</svg>
