<svg width="37" height="37" viewBox="0 0 37 37" fill="none" xmlns="http://www.w3.org/2000/svg">
<path fill-rule="evenodd" clip-rule="evenodd" d="M18.018 36.036C27.9691 36.036 36.036 27.9691 36.036 18.018C36.036 8.06694 27.9691 0 18.018 0C8.06694 0 0 8.06694 0 18.018C0 27.9691 8.06694 36.036 18.018 36.036ZM6.88837 26.6703C7.35149 27.1334 7.90822 27.3649 8.55855 27.3649H27.4775C28.1278 27.3649 28.6845 27.1334 29.1477 26.6703C29.6108 26.2071 29.8423 25.6504 29.8423 25.0001V10.8109C29.8423 10.1605 29.6108 9.60381 29.1477 9.14069C28.6845 8.67757 28.1278 8.44601 27.4775 8.44601H8.55855C7.90822 8.44601 7.35149 8.67757 6.88837 9.14069C6.42525 9.60381 6.19369 10.1605 6.19369 10.8109V25.0001C6.19369 25.6504 6.42525 26.2071 6.88837 26.6703ZM27.4775 13.1757L18.018 19.0879L8.55855 13.1757V10.8109L18.018 16.723L27.4775 10.8109V13.1757Z" fill="#928BCF"/>
</svg>
