<svg width="79" height="67" viewBox="0 0 79 67" fill="none" xmlns="http://www.w3.org/2000/svg">
<path fill-rule="evenodd" clip-rule="evenodd" d="M21.5858 48.668C19.081 46.2258 16.8267 43.8463 14.8229 41.5294C17.9539 43.408 21.3666 44.3472 25.0611 44.3472C27.5659 44.3472 30.0081 43.8776 32.3876 42.9383C32.9571 42.7135 33.5123 42.4618 34.0531 42.1832C34.005 42.9193 33.981 43.6755 33.981 44.4517C33.981 51.3399 36.0474 56.6625 40.1803 60.4197C44.3131 64.2394 50.8569 66.1493 59.8114 66.1493H78.5033V0.586967H72.1161V34.3074C71.6151 32.9924 70.7072 31.2391 69.3921 29.0474C68.0145 26.8557 66.4177 24.5075 64.6018 22.0028C62.7232 19.498 60.7507 16.9619 58.6843 14.3945C56.5552 11.8897 54.4575 9.60414 52.391 7.5377C50.262 5.47127 48.2895 3.78055 46.4735 2.46554C44.5949 1.21316 43.0294 0.586967 41.7771 0.586967H28.2513C32.1963 1.71411 35.9222 3.15436 39.4288 4.9077C42.8729 6.72365 46.0978 8.69616 49.1035 10.8252C52.1092 13.0169 54.8645 15.3025 57.3693 17.682C59.874 20.1242 62.1283 22.5037 64.1321 24.8206C61.0012 22.942 57.5884 22.0028 53.8939 22.0028C51.3891 22.0028 48.947 22.4724 46.5674 23.4117C45.9979 23.6365 45.4427 23.8882 44.9019 24.1668C44.95 23.4307 44.9741 22.6745 44.9741 21.8983C44.9741 15.0101 42.9076 9.6875 38.7748 5.93034C34.6419 2.11057 28.0982 0.200684 19.1436 0.200684H0.451782V65.763H6.83895V32.0426C7.3399 33.3576 8.24788 35.1109 9.56288 37.3026C10.9405 39.4943 12.5373 41.8425 14.3533 44.3472C16.2318 46.852 18.2043 49.3881 20.2708 51.9555C22.3998 54.4603 24.4976 56.7459 26.564 58.8123C28.6931 60.8787 30.6656 62.5695 32.4815 63.8845C34.3601 65.1368 35.9256 65.763 37.178 65.763H50.7037C46.7587 64.6359 43.0329 63.1956 39.5262 61.4423C36.0821 59.6263 32.8572 57.6538 29.8515 55.5248C26.8458 53.3331 24.0905 51.0475 21.5858 48.668ZM13.6018 38.5237C10.7213 36.7077 8.46705 33.9838 6.83895 30.3519V8.74821C6.83895 7.37059 6.87026 6.21213 6.93287 5.27284C7.05811 4.33355 7.24597 3.58212 7.49645 3.01855C7.80954 2.39235 8.27919 1.95402 8.90538 1.70354C9.53157 1.39045 10.3456 1.17128 11.3475 1.04604H19.1436C21.9615 1.04604 24.5289 1.45307 26.8458 2.26711C29.2253 3.01855 31.2291 4.23962 32.8572 5.93034C34.548 7.62106 35.8317 9.81274 36.7083 12.5054C37.6476 15.198 38.1173 18.4229 38.1173 22.18C38.1173 25.3736 37.6789 28.1602 36.8023 30.5397C35.9256 32.9192 34.7671 34.9231 33.3269 36.5512C31.8866 38.1166 30.2272 39.3064 28.3487 40.1205C26.4701 40.8719 24.5289 41.2476 22.5251 41.2476C19.4567 41.2476 16.4823 40.3396 13.6018 38.5237ZM65.3532 27.8263C68.2337 29.6423 70.488 32.3662 72.1161 35.9981V57.6018C72.1161 58.9794 72.0848 60.1379 72.0222 61.0772C71.8969 62.0164 71.7091 62.7679 71.4586 63.3315C71.1455 63.9576 70.6758 64.396 70.0497 64.6465C69.4235 64.9596 68.6094 65.1787 67.6075 65.304H59.8114C56.9935 65.304 54.4261 64.8969 52.1092 64.0829C49.7297 63.3315 47.7259 62.1104 46.0978 60.4197C44.4071 58.7289 43.1234 56.5373 42.2467 53.8446C41.3074 51.152 40.8378 47.9271 40.8378 44.17C40.8378 40.9764 41.2761 38.1898 42.1528 35.8103C43.0294 33.4308 44.1879 31.4269 45.6281 29.7988C47.0684 28.2334 48.7278 27.0436 50.6064 26.2295C52.485 25.4781 54.4261 25.1024 56.43 25.1024C59.4983 25.1024 62.4727 26.0104 65.3532 27.8263Z" fill="#928BCF"/>
</svg>
